<?xml version="1.0" encoding="utf-8"?>
<!-- Generator: Adobe Illustrator 19.2.1, SVG Export Plug-In . SVG Version: 6.00 Build 0)  -->
<svg version="1.1" xmlns="http://www.w3.org/2000/svg" xmlns:xlink="http://www.w3.org/1999/xlink" x="0px" y="0px"
	 viewBox="0 0 301 158.3" style="enable-background:new 0 0 301 158.3;" xml:space="preserve">
<style type="text/css">
	.st0{display:none;}
	.st1{display:inline;fill:#FFFFFF;}
	.st2{display:inline;fill:#3BA83B;}
	.st3{fill:#FFFFFF;}
	.st4{fill:#3BA83B;}
	.st5{fill:#DDDD28;}
	.st6{fill:#FFFFFF;stroke:#000000;stroke-width:5;stroke-miterlimit:10;}
	.st7{fill:none;stroke:#FFFFFF;stroke-width:5;stroke-miterlimit:10;}
	.st8{fill:none;stroke:#3BA83B;stroke-width:3;stroke-miterlimit:10;}
	.st9{fill:none;stroke:#3BA83B;stroke-width:5;stroke-miterlimit:10;}
	.st10{fill:none;stroke:#FFFFFF;stroke-width:3;stroke-miterlimit:10;}
</style>
<g id="レイヤー_6" class="st0">
	<path class="st1" d="M150.5-200l0,18.3c0,0,3-8.8,10.2-11.4l119.2-27.1c0,0,2.5-1.4,2.5,0.7c0,0.5,0,77.6,0,92
		c0,2.1-1.3,2.5-1.3,2.5L150.5-94.3L150.5-200z"/>
	<path class="st2" d="M150.5-174.1v-12.7c0,0-3-3.7-10.3-6.2L21.1-220.1c0,0-2.5-1.4-2.5,0.7c0,0.5,0,77.6,0,92
		c0,2.1,1.3,2.5,1.3,2.5l130.6,30.7L150.5-174.1z"/>
	<path class="st1" d="M-419.5-200l0,18.3c0,0,3-8.8,10.2-11.4l119.2-37.1c0,0,2.5-1.4,2.5,0.7c0,0.5,0,85.6,0,100
		c0,2.1-1.3,2.5-1.3,2.5l-130.7,40.7L-419.5-200z"/>
	<path class="st2" d="M-419.5-174.1v-12.7c0,0-3-3.7-10.2-6.2l-119.2-37.1c0,0-2.5-1.4-2.5,0.7c0,0.5,0,85.6,0,100
		c0,2.1,1.3,2.5,1.3,2.5l130.6,40.7L-419.5-174.1z"/>
</g>
<g id="レイヤー_1">
	<path d="M296.7,121.5l-5.2,1.1V16.7l6.7-1.4c1.9-0.4,3.1-2.3,2.7-4.2c-0.4-1.9-2.3-3.1-4.2-2.7l-5.2,1.1v-6c0-1.9-1.6-3.5-3.5-3.5
		s-3.5,1.6-3.5,3.5V11l-134,27.8L16.5,11V3.5C16.5,1.6,14.9,0,13,0S9.5,1.6,9.5,3.5v6L4.2,8.4C2.4,8,0.5,9.3,0.1,11.1
		c-0.4,1.9,0.8,3.8,2.7,4.2l6.7,1.4v105.8l-5.2-1.1c-1.9-0.4-3.8,0.8-4.2,2.7c-0.4,1.9,0.8,3.8,2.7,4.2l6.7,1.4v8
		c0,1.9,1.6,3.5,3.5,3.5s3.5-1.6,3.5-3.5v-6.6c0,0,132.7,27.2,133.9,27.2c1.3,0,134-27.2,134-27.2v6.6c0,1.9,1.6,3.5,3.5,3.5
		s3.5-1.6,3.5-3.5v-8l6.7-1.4c1.9-0.4,3.1-2.3,2.7-4.2C300.5,122.3,298.6,121.1,296.7,121.5z M284.5,124l-134,27.4L16.5,124v-104
		l131.2,25.5c0.8,0.5,1.7,0.7,2.7,0.5l0,0l0,0c1,0.2,1.9,0,2.7-0.5l131.2-25.5V124z"/>
	<path class="st3" d="M150.5,59.4c0,0,0.5-3.2,1.5-6.3c1-3,3.6-4.7,11.5-5.7l118.1-22.8c2.7-0.4,3-1.9,3,6.3c0,1.4,0,7.4,0,10.4
		c0,0.5,0,61.4,0,75.8c0,2.1-3.3,2.8-3.3,2.8l-130.7,35.3L150.5,59.4z"/>
	<path class="st4" d="M150.4,59.4c0,0-0.5-3.2-1.5-6.3c-1-3-3.6-4.7-11.5-5.7L19.4,24.6c-2.7-0.4-3-1.9-3,6.3c0,1.4,0,7.4,0,10.4
		c0,0.5,0,61.4,0,75.8c0,2.1,3.3,2.8,3.3,2.8l130.7,35.3L150.4,59.4z"/>
	<path class="st5" d="M148.5,154.6L25.1,129.5c-14.3-4.3-12.6-10.8-12.6-18.9c0-1.1,0-77.4,0-79c0-17.4,8.8-16,18-14.1l115.9,23.7
		c0,0,4.1,1,4.1,4.9c0,2.5,0,13.4,0,13.4s-0.5-3.2-1.5-6.3c-1-3-3.6-4.7-11.5-5.7L19.5,24.6c-2.7-0.4-3-1.9-3,6.3
		c0,1.4,0,7.4,0,10.4c0,0.5,0,61.4,0,75.8c0,2.1,3.4,2.8,3.4,2.8l128.6,26.2V154.6z"/>
	<path class="st5" d="M152.5,154.6l123.4-25.2c14.3-4.3,12.6-10.8,12.6-18.9c0-1.1,0-77.4,0-79c0-17.4-13-15.7-18-14.1L154.6,41.1
		c0,0-4.1,1-4.1,4.9c0,2.5,0,13.4,0,13.4s0.5-3.2,1.5-6.3c1-3,3.6-4.7,11.5-5.7l118.1-22.8c2.7-0.4,3-1.9,3,6.3c0,1.4,0,7.4,0,10.4
		c0,0.5,0,61.4,0,75.8c0,2.1-3.4,2.8-3.4,2.8l-128.6,26.2V154.6z"/>
	<path d="M143.7,49"/>
	<path class="st6" d="M15,117.2"/>
</g>
<g id="文字">
	<g>
		<path class="st3" d="M41.7,109.2L41.7,109.2c-1.9,0-3.5-1.6-3.5-3.5V84.2c0-1.9,1.6-3.5,3.5-3.5h0c1.9,0,3.5,1.6,3.5,3.5v21.5
			C45.2,107.6,43.6,109.2,41.7,109.2z"/>
		<path class="st7" d="M41.7,109.2L41.7,109.2c-1.9,0-3.5-1.6-3.5-3.5V84.2c0-1.9,1.6-3.5,3.5-3.5h0c1.9,0,3.5,1.6,3.5,3.5v21.5
			C45.2,107.6,43.6,109.2,41.7,109.2z"/>
		<path class="st8" d="M41.7,109.2L41.7,109.2c-1.9,0-3.5-1.6-3.5-3.5V84.2c0-1.9,1.6-3.5,3.5-3.5h0c1.9,0,3.5,1.6,3.5,3.5v21.5
			C45.2,107.6,43.6,109.2,41.7,109.2z"/>
	</g>
	<g>
		<path class="st3" d="M41.7,74.9L41.7,74.9c-1.9,0-3.5-1.6-3.5-3.5v-3.3c0-1.9,1.6-3.5,3.5-3.5h0c1.9,0,3.5,1.6,3.5,3.5v3.3
			C45.2,73.4,43.6,74.9,41.7,74.9z"/>
		<path class="st7" d="M41.7,74.9L41.7,74.9c-1.9,0-3.5-1.6-3.5-3.5v-3.3c0-1.9,1.6-3.5,3.5-3.5h0c1.9,0,3.5,1.6,3.5,3.5v3.3
			C45.2,73.4,43.6,74.9,41.7,74.9z"/>
		<path class="st8" d="M41.7,74.9L41.7,74.9c-1.9,0-3.5-1.6-3.5-3.5v-3.3c0-1.9,1.6-3.5,3.5-3.5h0c1.9,0,3.5,1.6,3.5,3.5v3.3
			C45.2,73.4,43.6,74.9,41.7,74.9z"/>
	</g>
	<g>
		<path class="st3" d="M66.4,80.8c3.2,0,13.3,1.1,13.3,11.3v13.6c0,1.9-1.6,3.5-3.5,3.5s-3.5-1.6-3.5-3.5V93.8c0-6-6.3-5.9-6.3-5.9
			s-6.3-0.1-6.3,5.9v11.9c0,1.9-1.6,3.5-3.5,3.5c-1.9,0-3.5-1.6-3.5-3.5V92.1C53.1,81.9,63.6,80.8,66.4,80.8z"/>
		<path class="st7" d="M66.4,80.8c3.2,0,13.3,1.1,13.3,11.3v13.6c0,1.9-1.6,3.5-3.5,3.5s-3.5-1.6-3.5-3.5V93.8c0-6-6.3-5.9-6.3-5.9
			s-6.3-0.1-6.3,5.9v11.9c0,1.9-1.6,3.5-3.5,3.5c-1.9,0-3.5-1.6-3.5-3.5V92.1C53.1,81.9,63.6,80.8,66.4,80.8z"/>
		<path class="st8" d="M66.4,80.8c3.2,0,13.3,1.1,13.3,11.3v13.6c0,1.9-1.6,3.5-3.5,3.5s-3.5-1.6-3.5-3.5V93.8c0-6-6.3-5.9-6.3-5.9
			s-6.3-0.1-6.3,5.9v11.9c0,1.9-1.6,3.5-3.5,3.5c-1.9,0-3.5-1.6-3.5-3.5V92.1C53.1,81.9,63.6,80.8,66.4,80.8z"/>
	</g>
	<g>
		<path class="st3" d="M87.4,94.9c0-3.2,1.1-14.3,11.3-14.3h11.9c1.9,0,3.5,1.6,3.5,3.5s-1.6,3.5-3.5,3.5h-10.2
			c-6,0-5.9,7.3-5.9,7.3s-0.1,7.3,5.9,7.3h10.2c1.9,0,3.5,1.6,3.5,3.5s-1.6,3.5-3.5,3.5H98.7C88.5,109.2,87.4,97.7,87.4,94.9z"/>
		<path class="st7" d="M87.4,94.9c0-3.2,1.1-14.3,11.3-14.3h11.9c1.9,0,3.5,1.6,3.5,3.5s-1.6,3.5-3.5,3.5h-10.2
			c-6,0-5.9,7.3-5.9,7.3s-0.1,7.3,5.9,7.3h10.2c1.9,0,3.5,1.6,3.5,3.5s-1.6,3.5-3.5,3.5H98.7C88.5,109.2,87.4,97.7,87.4,94.9z"/>
		<path class="st8" d="M87.4,94.9c0-3.2,1.1-14.3,11.3-14.3h11.9c1.9,0,3.5,1.6,3.5,3.5s-1.6,3.5-3.5,3.5h-10.2
			c-6,0-5.9,7.3-5.9,7.3s-0.1,7.3,5.9,7.3h10.2c1.9,0,3.5,1.6,3.5,3.5s-1.6,3.5-3.5,3.5H98.7C88.5,109.2,87.4,97.7,87.4,94.9z"/>
	</g>
	<path class="st3" d="M41.7,109.2L41.7,109.2c-1.9,0-3.5-1.6-3.5-3.5V84.2c0-1.9,1.6-3.5,3.5-3.5h0c1.9,0,3.5,1.6,3.5,3.5v21.5
		C45.2,107.6,43.6,109.2,41.7,109.2z"/>
	<path class="st3" d="M41.7,74.9L41.7,74.9c-1.9,0-3.5-1.6-3.5-3.5v-3.3c0-1.9,1.6-3.5,3.5-3.5h0c1.9,0,3.5,1.6,3.5,3.5v3.3
		C45.2,73.4,43.6,74.9,41.7,74.9z"/>
	<g>
		<path class="st3" d="M126,109.2h-0.5c-1.9,0-3.5-1.6-3.5-3.5V70.5c0-1.9,1.6-3.5,3.5-3.5h0.5c1.9,0,3.5,1.6,3.5,3.5v35.2
			C129.5,107.6,127.9,109.2,126,109.2z"/>
		<path class="st7" d="M126,109.2h-0.5c-1.9,0-3.5-1.6-3.5-3.5V70.5c0-1.9,1.6-3.5,3.5-3.5h0.5c1.9,0,3.5,1.6,3.5,3.5v35.2
			C129.5,107.6,127.9,109.2,126,109.2z"/>
		<path class="st8" d="M126,109.2h-0.5c-1.9,0-3.5-1.6-3.5-3.5V70.5c0-1.9,1.6-3.5,3.5-3.5h0.5c1.9,0,3.5,1.6,3.5,3.5v35.2
			C129.5,107.6,127.9,109.2,126,109.2z"/>
	</g>
	<path class="st3" d="M126,109.2h-0.5c-1.9,0-3.5-1.6-3.5-3.5V70.5c0-1.9,1.6-3.5,3.5-3.5h0.5c1.9,0,3.5,1.6,3.5,3.5v35.2
		C129.5,107.6,127.9,109.2,126,109.2z"/>
	<path class="st3" d="M66.4,80.8c3.2,0,13.3,1.1,13.3,11.3v13.6c0,1.9-1.6,3.5-3.5,3.5s-3.5-1.6-3.5-3.5V93.8c0-6-6.3-5.9-6.3-5.9
		s-6.3-0.1-6.3,5.9v11.9c0,1.9-1.6,3.5-3.5,3.5c-1.9,0-3.5-1.6-3.5-3.5V92.1C53.1,81.9,63.6,80.8,66.4,80.8z"/>
	<g>
		<path class="st4" d="M265.1,83.9c-2-2.8-4.7-3-6.9-3.2c-1.7-0.1-4.5,0-6.7,0c-3.4,0-11.1,1.8-11.1,13.3c0,0.3,0,0.7,0,0.9
			c0,0.2,0,0.3,0,0.5v10.3c0,1.9,1.6,3.5,3.5,3.5s3.5-1.6,3.5-3.5V101l0,0c0-2,0-1.3,0-2.7c0-4.9,0-11.7,4.8-11.7h3.6
			c1.8,0,3.4-0.2,4.5,2.5c0.4,1,3,1.9,4.8,0.5C267,88.3,266,85.2,265.1,83.9z"/>
		<path class="st9" d="M265.1,83.9c-2-2.8-4.7-3-6.9-3.2c-1.7-0.1-4.5,0-6.7,0c-3.4,0-11.1,1.8-11.1,13.3c0,0.3,0,0.7,0,0.9
			c0,0.2,0,0.3,0,0.5v10.3c0,1.9,1.6,3.5,3.5,3.5s3.5-1.6,3.5-3.5V101l0,0c0-2,0-1.3,0-2.7c0-4.9,0-11.7,4.8-11.7h3.6
			c1.8,0,3.4-0.2,4.5,2.5c0.4,1,3,1.9,4.8,0.5C267,88.3,266,85.2,265.1,83.9z"/>
		<path class="st10" d="M265.1,83.9c-2-2.8-4.7-3-6.9-3.2c-1.7-0.1-4.5,0-6.7,0c-3.4,0-11.1,1.8-11.1,13.3c0,0.3,0,0.7,0,0.9
			c0,0.2,0,0.3,0,0.5v10.3c0,1.9,1.6,3.5,3.5,3.5s3.5-1.6,3.5-3.5V101l0,0c0-2,0-1.3,0-2.7c0-4.9,0-11.7,4.8-11.7h3.6
			c1.8,0,3.4-0.2,4.5,2.5c0.4,1,3,1.9,4.8,0.5C267,88.3,266,85.2,265.1,83.9z"/>
	</g>
	<g>
		<path class="st4" d="M194.7,64c-1.9,0-3.5,1.6-3.5,3.5v13.7c-1.9-0.5-4.1-0.6-6.3-0.6c-6.3,0-13.3,1.1-13.3,11.3v5.9
			c0,10.2,6.1,11.3,13.3,11.3c7.7,0,13.3-1.1,13.3-11.3V92V67.5C198.2,65.6,196.6,64,194.7,64z M178.6,96.3v-1.8
			c0-5.4,1.9-7.2,6.3-7.2c4.6,0,6.3,1.2,6.3,7.2v1.8c0,6-2.4,5.9-6.3,5.9C181.7,102.2,178.6,102.3,178.6,96.3z"/>
		<path class="st9" d="M194.7,64c-1.9,0-3.5,1.6-3.5,3.5v13.7c-1.9-0.5-4.1-0.6-6.3-0.6c-6.3,0-13.3,1.1-13.3,11.3v5.9
			c0,10.2,6.1,11.3,13.3,11.3c7.7,0,13.3-1.1,13.3-11.3V92V67.5C198.2,65.6,196.6,64,194.7,64z M178.6,96.3v-1.8
			c0-5.4,1.9-7.2,6.3-7.2c4.6,0,6.3,1.2,6.3,7.2v1.8c0,6-2.4,5.9-6.3,5.9C181.7,102.2,178.6,102.3,178.6,96.3z"/>
		<path class="st10" d="M194.7,64c-1.9,0-3.5,1.6-3.5,3.5v13.7c-1.9-0.5-4.1-0.6-6.3-0.6c-6.3,0-13.3,1.1-13.3,11.3v5.9
			c0,10.2,6.1,11.3,13.3,11.3c7.7,0,13.3-1.1,13.3-11.3V92V67.5C198.2,65.6,196.6,64,194.7,64z M178.6,96.3v-1.8
			c0-5.4,1.9-7.2,6.3-7.2c4.6,0,6.3,1.2,6.3,7.2v1.8c0,6-2.4,5.9-6.3,5.9C181.7,102.2,178.6,102.3,178.6,96.3z"/>
	</g>
	<path class="st4" d="M265.1,83.9c-2-2.8-4.7-3-6.9-3.2c-1.7-0.1-4.5,0-6.7,0c-3.4,0-11.1,1.8-11.1,13.3c0,0.3,0,0.7,0,0.9
		c0,0.2,0,0.3,0,0.5v10.3c0,1.9,1.6,3.5,3.5,3.5s3.5-1.6,3.5-3.5V101l0,0c0-2,0-1.3,0-2.7c0-4.9,0-11.7,4.8-11.7h3.6
		c1.8,0,3.4-0.2,4.5,2.5c0.4,1,3,1.9,4.8,0.5C267,88.3,266,85.2,265.1,83.9z"/>
	<g>
		<path class="st3" d="M150.8,109.2c-3.2,0-13.3-1.1-13.3-11.3V84.2c0-1.9,1.6-3.5,3.5-3.5s3.5,1.6,3.5,3.5v12c0,6,6.3,5.9,6.3,5.9
			s6.3,0.1,6.3-5.9v-12c0-1.9,1.6-3.5,3.5-3.5s3.5,1.6,3.5,3.5v13.7C164.1,108.1,153.6,109.2,150.8,109.2z"/>
		<path class="st9" d="M150.8,109.2c-3.2,0-13.3-1.1-13.3-11.3V84.2c0-1.9,1.6-3.5,3.5-3.5s3.5,1.6,3.5,3.5v12c0,6,6.3,5.9,6.3,5.9
			s6.3,0.1,6.3-5.9v-12c0-1.9,1.6-3.5,3.5-3.5s3.5,1.6,3.5,3.5v13.7C164.1,108.1,153.6,109.2,150.8,109.2z"/>
		<path class="st10" d="M150.8,109.2c-3.2,0-13.3-1.1-13.3-11.3V84.2c0-1.9,1.6-3.5,3.5-3.5s3.5,1.6,3.5,3.5v12c0,6,6.3,5.9,6.3,5.9
			s6.3,0.1,6.3-5.9v-12c0-1.9,1.6-3.5,3.5-3.5s3.5,1.6,3.5,3.5v13.7C164.1,108.1,153.6,109.2,150.8,109.2z"/>
	</g>
	<path class="st4" d="M150.8,109.2c-3.2,0-13.3-1.1-13.3-11.3V84.2c0-1.9,1.6-3.5,3.5-3.5s3.5,1.6,3.5,3.5v12c0,6,6.3,5.9,6.3,5.9
		s6.3,0.1,6.3-5.9v-12c0-1.9,1.6-3.5,3.5-3.5s3.5,1.6,3.5,3.5v13.7C164.1,108.1,153.6,109.2,150.8,109.2z"/>
	<path class="st3" d="M87.4,94.9c0-3.2,1.1-14.3,11.3-14.3h11.9c1.9,0,3.5,1.6,3.5,3.5s-1.6,3.5-3.5,3.5h-10.2c-6,0-5.9,7.3-5.9,7.3
		s-0.1,7.3,5.9,7.3h10.2c1.9,0,3.5,1.6,3.5,3.5s-1.6,3.5-3.5,3.5H98.7C88.5,109.2,87.4,97.7,87.4,94.9z"/>
	<path class="st4" d="M194.7,64c-1.9,0-3.5,1.6-3.5,3.5v13.7c-1.9-0.5-4.1-0.6-6.3-0.6c-6.3,0-13.3,1.1-13.3,11.3v5.9
		c0,10.2,6.1,11.3,13.3,11.3c7.7,0,13.3-1.1,13.3-11.3V92V67.5C198.2,65.6,196.6,64,194.7,64z M178.6,96.3v-1.8
		c0-5.4,1.9-7.2,6.3-7.2c4.6,0,6.3,1.2,6.3,7.2v1.8c0,6-2.4,5.9-6.3,5.9C181.7,102.2,178.6,102.3,178.6,96.3z"/>
	<g>
		<path class="st4" d="M223.5,98.2h5.8c2.4,0,4.6-2.4,4.6-5.6c0-2.9-1.3-6.3-2-7c0,0,0,0,0,0c-1.6-2.7-4.4-4.9-8.4-4.9h-6.6
			c-10.2,0-11.3,11-11.3,14.3c0,2.7,1.1,13.9,10.9,14.2l12.4,0c1.9,0,3.5-1.6,3.5-3.5s-1.6-3.5-3.5-3.5h-1.3h-9
			c-3.2,0-4.7-2.1-5.3-4c1.1,0,2.5,0,3.5,0L223.5,98.2z M218.5,86.7h3.2c2.9,0,5.1,2.8,5.1,4.5h-6.7h-6.7
			C213.4,89.1,215.6,86.7,218.5,86.7z"/>
		<path class="st9" d="M223.5,98.2h5.8c2.4,0,4.6-2.4,4.6-5.6c0-2.9-1.3-6.3-2-7c0,0,0,0,0,0c-1.6-2.7-4.4-4.9-8.4-4.9h-6.6
			c-10.2,0-11.3,11-11.3,14.3c0,2.7,1.1,13.9,10.9,14.2l12.4,0c1.9,0,3.5-1.6,3.5-3.5s-1.6-3.5-3.5-3.5h-1.3h-9
			c-3.2,0-4.7-2.1-5.3-4c1.1,0,2.5,0,3.5,0L223.5,98.2z M218.5,86.7h3.2c2.9,0,5.1,2.8,5.1,4.5h-6.7h-6.7
			C213.4,89.1,215.6,86.7,218.5,86.7z"/>
		<path class="st10" d="M223.5,98.2h5.8c2.4,0,4.6-2.4,4.6-5.6c0-2.9-1.3-6.3-2-7c0,0,0,0,0,0c-1.6-2.7-4.4-4.9-8.4-4.9h-6.6
			c-10.2,0-11.3,11-11.3,14.3c0,2.7,1.1,13.9,10.9,14.2l12.4,0c1.9,0,3.5-1.6,3.5-3.5s-1.6-3.5-3.5-3.5h-1.3h-9
			c-3.2,0-4.7-2.1-5.3-4c1.1,0,2.5,0,3.5,0L223.5,98.2z M218.5,86.7h3.2c2.9,0,5.1,2.8,5.1,4.5h-6.7h-6.7
			C213.4,89.1,215.6,86.7,218.5,86.7z"/>
	</g>
	<path class="st4" d="M223.5,98.2h5.8c2.4,0,4.6-2.4,4.6-5.6c0-2.9-1.3-6.3-2-7c0,0,0,0,0,0c-1.6-2.7-4.4-4.9-8.4-4.9h-6.6
		c-10.2,0-11.3,11-11.3,14.3c0,2.7,1.1,13.9,10.9,14.2l12.4,0c1.9,0,3.5-1.6,3.5-3.5s-1.6-3.5-3.5-3.5h-1.3h-9c-3.2,0-4.7-2.1-5.3-4
		c1.1,0,2.5,0,3.5,0L223.5,98.2z M218.5,86.7h3.2c2.9,0,5.1,2.8,5.1,4.5h-6.7h-6.7C213.4,89.1,215.6,86.7,218.5,86.7z"/>
</g>
<g id="レイヤー_3">
</g>
<g id="ガイド" class="st0">
</g>
</svg>
